<mxfile host="app.diagrams.net" modified="2024-03-19T12:11:46.343Z" agent="Mozilla/5.0 (X11; Linux x86_64) AppleWebKit/537.36 (KHTML, like Gecko) Chrome/122.0.0.0 Safari/537.36" version="24.0.7" etag="UMgNzefz4UGr76fjZ9E5" type="github">
  <diagram name="Page-1" id="ISiJqDEm_PU_HYgPCADq">
    <mxGraphModel>
      <root>
        <mxCell id="0" />
        <mxCell id="1" parent="0" />
      </root>
    </mxGraphModel>
  </diagram>
</mxfile>
